<svg width="24" height="24" fill="none" xmlns="http://www.w3.org/2000/svg"><path d="M16.619 0h.17c.137 1.693-.509 2.957-1.294 3.873-.77.91-1.825 1.792-3.531 1.658-.114-1.669.533-2.84 1.317-3.753C14.008.926 15.34.168 16.619 0zm5.165 17.617v.047c-.48 1.452-1.164 2.697-1.998 3.852-.763 1.049-1.696 2.46-3.364 2.46-1.44 0-2.397-.927-3.873-.952-1.562-.025-2.421.775-3.85.976h-.486c-1.049-.152-1.895-.982-2.512-1.73-1.818-2.212-3.222-5.067-3.484-8.722v-1.074C2.327 9.858 3.6 7.73 5.288 6.7c.892-.548 2.118-1.015 3.482-.807.585.091 1.183.291 1.707.49.496.19 1.117.528 1.705.51.398-.011.794-.219 1.196-.365 1.176-.425 2.329-.912 3.849-.683 1.826.276 3.122 1.087 3.923 2.34-1.545.983-2.766 2.464-2.557 4.995.185 2.298 1.521 3.643 3.19 4.436z" fill="#FF6231"/></svg>