<?xml version="1.0" encoding="UTF-8" standalone="no"?>
<!DOCTYPE svg PUBLIC "-//W3C//DTD SVG 1.1//EN" "http://www.w3.org/Graphics/SVG/1.1/DTD/svg11.dtd">
<svg width="100%" height="100%" viewBox="0 0 3863 2180" version="1.1" xmlns="http://www.w3.org/2000/svg" xmlns:xlink="http://www.w3.org/1999/xlink" xml:space="preserve" xmlns:serif="http://www.serif.com/" style="fill-rule:evenodd;clip-rule:evenodd;stroke-linecap:round;stroke-linejoin:round;">
    <g transform="matrix(4.16667,0,0,4.16667,0,0)">
        <path d="M835.187,412.283L782.429,394.725L771,428.963L823.758,446.521L835.187,412.283Z" style="fill:rgb(169,76,47);fill-rule:nonzero;"/>
        <path d="M835.173,412.266L782.442,394.731L813.733,382.761C815.064,382.252 816.583,382.758 817.343,383.964L835.173,412.266Z" style="fill:rgb(255,98,49);fill-rule:nonzero;"/>
        <path d="M829.74,405.189L791.312,392.401C791.108,392.333 790.894,392.298 790.679,392.298C789.82,392.298 789.052,392.851 788.781,393.666L778.163,425.474C778.095,425.678 778.06,425.892 778.06,426.107C778.06,426.965 778.613,427.732 779.427,428.003L817.856,440.791C818.897,441.138 820.039,440.567 820.387,439.526L831.005,407.718C831.351,406.677 830.78,405.536 829.74,405.189Z" style="fill:white;fill-rule:nonzero;"/>
        <g>
            <path d="M782.442,394.731L771.013,428.965L802.652,421.822L782.442,394.731Z" style="fill:url(#_Linear1);fill-rule:nonzero;"/>
        </g>
        <g>
            <path d="M835.173,412.266L823.744,446.5L802.698,421.822L835.173,412.266Z" style="fill:url(#_Linear2);fill-rule:nonzero;"/>
        </g>
        <path d="M823.744,446.5L771.013,428.965L802.305,416.995C803.636,416.486 805.155,416.992 805.915,418.198L823.744,446.5Z" style="fill:rgb(255,98,49);fill-rule:nonzero;"/>
        <path d="M130.973,141.05C139.967,151.988 155.442,175.458 163.035,190.985M239.482,367.64C243.833,349.553 224.037,318.94 224.037,318.94M204.858,211.652C204.621,225.269 191.016,230.583 191.016,230.583M191.016,230.583C191.016,230.583 199.769,245.729 204.087,256.035C209.067,267.92 211.282,274.905 214.062,287.487M191.016,230.583C191.016,230.583 174.626,214.692 163.035,190.985M256.883,295.294C248.463,315.328 224.037,318.94 224.037,318.94M224.037,318.94L214.062,287.487M214.062,287.487C196.955,287.19 188.265,295.616 170.257,286.727M163.035,190.985C163.035,190.985 137.605,189.744 119.586,164.456" style="fill:none;fill-rule:nonzero;stroke:white;stroke-opacity:0.2;stroke-width:2px;"/>
        <path d="M269.559,53.08C280.361,53.08 289.118,44.321 289.118,33.516C289.118,22.712 280.361,13.953 269.559,13.953C258.757,13.953 250,22.712 250,33.516C250,44.321 258.757,53.08 269.559,53.08Z" style="fill:url(#_Linear3);fill-rule:nonzero;"/>
        <path d="M265.814,45.643L258.962,33.773C258.419,32.834 258.133,31.768 258.133,30.683C258.133,28.48 259.313,26.437 261.222,25.336C262.161,24.793 263.227,24.507 264.311,24.507C266.515,24.507 268.557,25.687 269.657,27.596L270.335,28.77L271.726,27.967C272.665,27.424 273.731,27.138 274.815,27.138C277.019,27.138 279.061,28.318 280.161,30.227C280.704,31.166 280.99,32.231 280.99,33.316C280.99,35.52 279.809,37.562 277.9,38.663L265.814,45.643Z" style="fill:white;fill-rule:nonzero;"/>
        <path d="M785.074,312.263C801.375,316.246 817.822,306.257 821.81,289.951C825.798,273.645 815.816,257.196 799.515,253.213C783.214,249.229 766.767,259.219 762.78,275.525C758.792,291.831 768.774,308.279 785.074,312.263Z" style="fill:url(#_Linear4);fill-rule:nonzero;"/>
        <path d="M786.773,294.263C789.354,294.263 791.651,293.743 793.649,292.846C794.047,292.668 795,293.5 795,293.5C795,293.5 795.617,291.793 796,291.532C800.701,288.335 803.191,282.839 803.191,277.845C803.191,277.595 803.186,277.346 803.175,277.099C804.304,276.282 805.279,275.27 806.053,274.111C805.019,274.571 803.167,274.86 802,275C803.191,274.285 804.846,273.175 805.277,271.828C804.144,272.5 802.905,272.974 801.613,273.229C800.56,272.107 798.16,271.5 796.5,271.5C793.314,271.5 791.63,273.99 791.63,277.175C791.63,277.628 791.681,278.068 791.78,278.491C787.142,278.258 782.815,276.065 779.885,272.462C777.928,277.845 782.047,279.029 785,281C784.053,280.971 779.836,279.876 779.059,279.444L779.058,279.517C779.058,282.312 784,285.816 787,285C786.515,285.132 782.692,285.377 782.166,285.377C781.795,285.377 779.352,285.568 779,285.5C779.735,287.793 784,290 786.472,289.281C784.428,290.885 781.903,291.755 779.305,291.751C778.84,291.751 778.38,291.724 777.928,291.671C780.566,293.366 783.637,294.266 786.773,294.263Z" style="fill:white;fill-rule:nonzero;"/>
        <path d="M255.27,131.43L277.5,135.5L187.623,179.449L255.27,131.43Z" style="fill:rgb(255,223,8);fill-rule:nonzero;"/>
        <path d="M187.623,179.449L255,150L255.5,146L187.623,179.449Z" style="fill:rgb(255,168,8);fill-rule:nonzero;"/>
        <path d="M187.624,179.449L250.614,128.364L255.271,131.426L187.624,179.449Z" style="fill:rgb(255,168,8);fill-rule:nonzero;"/>
        <path d="M187.624,179.45L245.5,112L250.614,128.365L187.624,179.45Z" style="fill:rgb(255,223,8);fill-rule:nonzero;"/>
        <path d="M693.671,164.286C707.296,164.286 718.342,153.238 718.342,139.61C718.342,125.981 707.296,114.933 693.671,114.933C680.045,114.933 669,125.981 669,139.61C669,153.238 680.045,164.286 693.671,164.286Z" style="fill:url(#_Linear5);fill-rule:nonzero;"/>
        <g>
            <clipPath id="_clip6">
                <path d="M675.608,133.608L696.393,121.608L708.393,142.393L687.608,154.393L675.608,133.608Z"/>
            </clipPath>
            <g clip-path="url(#_clip6)">
                <path d="M692.67,149.16L690.072,150.66C689.768,150.836 689.422,150.929 689.071,150.929C688.357,150.929 687.696,150.547 687.34,149.928L683.84,143.866C683.664,143.562 683.571,143.217 683.571,142.865C683.571,142.152 683.954,141.49 684.572,141.134L687.17,139.634M692.232,134.402L690.232,130.938C689.409,129.513 687.559,129.017 686.134,129.84L687.17,139.634L692.67,149.16L702.438,143.52C703.304,143.034 703.683,141.973 703.321,141.048L700.016,132.564C699.801,132.018 699.358,131.593 698.804,131.401C698.25,131.21 697.638,131.273 697.134,131.572L692.232,134.402Z" style="fill:none;fill-rule:nonzero;stroke:white;stroke-width:2px;"/>
            </g>
        </g>
        <path d="M818.79,86.16C814.479,83.71 811.317,79.64 810.01,74.857C807.275,64.89 813.142,54.615 823.083,51.889C833.047,49.156 843.321,55.028 846.05,64.972C848.785,74.939 842.918,85.214 832.977,87.94C831.326,88.396 829.619,88.62 827.906,88.604C825.487,88.577 820.428,94.415 818.5,96C818.997,93.211 821.454,87.676 818.79,86.16Z" style="fill:url(#_Linear7);fill-rule:nonzero;"/>
        <path d="M834.075,71.763C834.091,71.763 834.107,71.764 834.123,71.764C835.145,71.764 835.985,70.923 835.985,69.902C835.985,68.88 835.145,68.04 834.123,68.04C834.1,68.04 834.076,68.04 834.052,68.041C833.058,68.079 832.261,68.907 832.261,69.902C832.261,70.905 833.072,71.737 834.075,71.763Z" style="fill:white;fill-rule:nonzero;"/>
        <path d="M829.398,69.929C829.398,69.932 829.398,69.934 829.398,69.937C829.398,70.684 828.783,71.299 828.037,71.299C827.293,71.299 826.679,70.689 826.675,69.945C826.675,69.93 826.674,69.916 826.674,69.901C826.674,69.154 827.289,68.539 828.036,68.539C828.783,68.539 829.398,69.154 829.398,69.901C829.398,69.91 829.398,69.92 829.398,69.929Z" style="fill:none;fill-rule:nonzero;stroke:white;stroke-width:1px;stroke-linecap:butt;stroke-linejoin:miter;"/>
        <path d="M822.021,71.835C823.038,71.829 823.872,70.99 823.872,69.972C823.872,68.951 823.031,68.11 822.01,68.11C822.006,68.11 822.002,68.11 821.998,68.11C820.981,68.116 820.147,68.955 820.147,69.972C820.147,70.994 820.988,71.835 822.01,71.835C822.013,71.835 822.017,71.835 822.021,71.835Z" style="fill:white;fill-rule:nonzero;"/>
        <path d="M810.708,100.785C813.557,96.332 814.383,90.871 812.979,85.774C810.244,75.807 799.954,69.964 790.013,72.69C780.072,75.417 774.211,85.713 776.94,95.658C779.675,105.625 789.965,111.468 799.906,108.742C801.332,108.353 802.707,107.794 804,107.078C806.958,105.434 815.074,110.252 818.23,111.416C817.037,109.868 809.798,102.209 810.708,100.785Z" style="fill:url(#_Linear8);fill-rule:nonzero;"/>
        <path d="M788.967,92.61C789.984,92.604 790.818,91.765 790.818,90.748C790.818,89.727 789.977,88.886 788.956,88.886C788.952,88.886 788.948,88.886 788.944,88.886C787.927,88.892 787.093,89.731 787.093,90.748C787.093,91.769 787.934,92.61 788.956,92.61C788.959,92.61 788.963,92.61 788.967,92.61ZM794.994,92.575C795.004,92.575 795.014,92.575 795.024,92.575C796.046,92.575 796.887,91.734 796.887,90.712C796.887,89.69 796.046,88.849 795.024,88.849C795.006,88.849 794.989,88.849 794.971,88.85C793.969,88.879 793.161,89.71 793.161,90.712C793.161,91.723 793.983,92.559 794.994,92.575Z" style="fill:white;fill-rule:nonzero;"/>
        <path d="M802.349,90.669C802.349,90.684 802.35,90.698 802.35,90.713C802.35,91.461 801.734,92.076 800.987,92.076C800.239,92.076 799.624,91.461 799.624,90.713C799.624,90.704 799.624,90.694 799.624,90.685C799.639,89.948 800.25,89.35 800.987,89.35C801.718,89.35 802.325,89.938 802.349,90.669Z" style="fill:none;fill-rule:nonzero;stroke:white;stroke-width:1px;stroke-linecap:butt;stroke-linejoin:miter;"/>
    </g>
    <defs>
        <linearGradient id="_Linear1" x1="0" y1="0" x2="1" y2="0" gradientUnits="userSpaceOnUse" gradientTransform="matrix(-31.639,3.87466e-15,-3.87466e-15,-31.639,802.652,411.848)"><stop offset="0" style="stop-color:rgb(255,169,121);stop-opacity:1"/><stop offset="1" style="stop-color:rgb(249,147,115);stop-opacity:1"/></linearGradient>
        <linearGradient id="_Linear2" x1="0" y1="0" x2="1" y2="0" gradientUnits="userSpaceOnUse" gradientTransform="matrix(-32.475,3.97704e-15,-3.97704e-15,-32.475,835.173,429.383)"><stop offset="0" style="stop-color:rgb(255,169,121);stop-opacity:1"/><stop offset="1" style="stop-color:rgb(249,147,115);stop-opacity:1"/></linearGradient>
        <linearGradient id="_Linear3" x1="0" y1="0" x2="1" y2="0" gradientUnits="userSpaceOnUse" gradientTransform="matrix(39.12,0,0,39.12,249.986,33.5)"><stop offset="0" style="stop-color:rgb(252,114,124);stop-opacity:1"/><stop offset="1" style="stop-color:rgb(250,58,84);stop-opacity:1"/></linearGradient>
        <linearGradient id="_Linear4" x1="0" y1="0" x2="1" y2="0" gradientUnits="userSpaceOnUse" gradientTransform="matrix(-13.882,72.121,-72.121,-13.882,796.558,260.54)"><stop offset="0" style="stop-color:rgb(174,141,239);stop-opacity:1"/><stop offset="1" style="stop-color:rgb(117,70,217);stop-opacity:1"/><stop offset="1" style="stop-color:rgb(117,70,217);stop-opacity:1"/></linearGradient>
        <linearGradient id="_Linear5" x1="0" y1="0" x2="1" y2="0" gradientUnits="userSpaceOnUse" gradientTransform="matrix(91.016,62.497,-62.497,91.016,654.952,113.027)"><stop offset="0" style="stop-color:rgb(36,194,228);stop-opacity:1"/><stop offset="0" style="stop-color:rgb(36,194,228);stop-opacity:1"/><stop offset="1" style="stop-color:rgb(4,95,242);stop-opacity:1"/><stop offset="1" style="stop-color:rgb(4,95,242);stop-opacity:1"/></linearGradient>
        <linearGradient id="_Linear7" x1="0" y1="0" x2="1" y2="0" gradientUnits="userSpaceOnUse" gradientTransform="matrix(11.535,79.412,-79.412,11.535,821.818,27.185)"><stop offset="0" style="stop-color:rgb(0,163,115);stop-opacity:1"/><stop offset="0.13" style="stop-color:rgb(0,163,115);stop-opacity:1"/><stop offset="1" style="stop-color:rgb(26,187,192);stop-opacity:1"/></linearGradient>
        <linearGradient id="_Linear8" x1="0" y1="0" x2="1" y2="0" gradientUnits="userSpaceOnUse" gradientTransform="matrix(36.038,-9.89,9.89,36.038,777.905,99.224)"><stop offset="0" style="stop-color:rgb(252,114,124);stop-opacity:1"/><stop offset="1" style="stop-color:rgb(250,58,84);stop-opacity:1"/></linearGradient>
    </defs>
</svg>
