<svg width="24" height="24" fill="none" xmlns="http://www.w3.org/2000/svg"><g clip-path="url(#clip0)"><path d="M4.599.306A2.082 2.082 0 002.6.21l10.775 10.798 3.523-3.54L4.6.307zM1.61 1.21c-.136.287-.21.608-.21.937V21.9c0 .331.074.647.212.929l10.77-10.822L1.612 1.21zM13.377 13L2.62 23.811c.286.131.59.189.893.189.375 0 .748-.09 1.087-.293l12.3-7.174-3.524-3.532zm8.207-2.804a.153.153 0 00-.013-.008L18.155 8.2l-3.786 3.804 3.789 3.796 3.426-1.997A2.094 2.094 0 0022.598 12c0-.744-.379-1.418-1.014-1.803z" fill="#FF6231"/></g><defs><clipPath id="clip0"><path fill="#FF6231" d="M0 0h24v24H0z"/></clipPath></defs></svg>