<svg width="185" height="204" fill="none" xmlns="http://www.w3.org/2000/svg"><path opacity=".5" d="M95.861.814c-16.904-3.935-30.045 7.333-42.23 13.827C41.443 21.136 12.87 31.611 12.66 49.21c-.21 17.598-3.152 64.108-3.152 64.108s-15.483 28.486-6.934 43.367c6.8 11.836 19.046 9.782 30.256 17.599 14.44 10.07 16.568 27.225 34.037 29.54 14.198 1.882 34.667-11.942 34.667-11.942l32.146-23.255s30.631-3.024 42.232-16.341c13.083-15.019 8.194-50.281 8.194-50.281s-9.216-29.969-21.431-45.253c-11.452-14.33-21.431-10.056-36.558-29.54C110.989 7.728 111.15 4.373 95.861.814z" fill="#EBEBF7"/></svg>