<svg width="171" height="522" fill="none" xmlns="http://www.w3.org/2000/svg"><path d="M23.004 40.813s1.892-17.051-16.521-16.59c.036.027-1.988 17.771 16.52 16.59zm45.44 51.293s19.612-19.017 2.46-44.922c.085.055-17.789 15.183-2.46 44.922z" fill="#4043AF"/><path d="M92.413 129.767s31.336-19.613 11.254-59.12c0 0-27.658 15.836-11.254 59.12z" fill="#FF6231"/><path d="M115.726 180.425s33.76-21.024 11.253-59.121c.015.071-24.934 18.332-11.253 59.121zm-33.758-68.811s-24.42 17.64-44.134-6.588c0 0 23.51-17.857 44.134 6.588zm21.454 39.578s-25.107 22.099-53.274-7.929c0 0 28.618-20.72 53.274 7.929z" fill="#4043AF"/><path d="M123.627 204.903s-31.56 16.208-49.734-20.606c0 0 27.749-15.036 49.734 20.606z" fill="#FF6231"/><path d="M131.88 241.739l4.567-.941c-.29-1.406-31.207-141.105-124.799-213.87L8.87 30.506c92.206 71.731 122.649 209.841 123.01 211.233z" fill="#4043AF"/><path d="M102.716 147.999a5.343 5.343 0 10-2.158-10.466 5.343 5.343 0 002.158 10.466zm8.891 35.574a5.343 5.343 0 10-2.158-10.466 5.343 5.343 0 002.158 10.466zm-28.025-56.568a4.579 4.579 0 10-1.849-8.97 4.58 4.58 0 101.85 8.97zM55.25 68.942a3.816 3.816 0 10-1.541-7.476 3.816 3.816 0 001.54 7.476zM38.862 64.05a3.816 3.816 0 10-1.54-7.475 3.816 3.816 0 001.54 7.475zm-7.805-18.69a3.816 3.816 0 10-1.541-7.475 3.816 3.816 0 001.54 7.476zm8.335 6.95a3.816 3.816 0 10-1.541-7.475 3.816 3.816 0 001.54 7.475zm8.336 6.95a3.816 3.816 0 10-1.54-7.475 3.816 3.816 0 001.54 7.476zm-2.302 12.698a3.816 3.816 0 10-1.541-7.476 3.816 3.816 0 001.541 7.476zM32.3 56.143a3.816 3.816 0 10-1.54-7.476 3.816 3.816 0 001.54 7.476zm-9.295-8.723a3.816 3.816 0 10-1.54-7.475 3.816 3.816 0 001.54 7.475z" fill="#FF6231"/><path d="M135.165 350.015a1.39 1.39 0 01-1.326-1.061c-9.965-40.386-55.489-65.546-55.944-65.795a1.423 1.423 0 01-.575-1.895c.357-.682 1.214-.931 1.896-.574.472.263 47.066 25.971 57.322 67.57a1.384 1.384 0 01-1.019 1.683c-.105.054-.23.063-.354.072z" fill="#4043AF"/><path d="M84.709 285.81s.676-33.747-41.237-34.082c-1.013-.008 12.198 8.347 11.135 8.379-1.209.036-9.789-7.397-17.974-8.154-8.186-.756-11.33 1.254-17.958 2.724 0 0 11.874 4.832 23.682 23.192 5.627 8.741 16.897 12.96 22.208 13.05 5.312.09 10.621-2.939 10.621-2.939.733-.051-4.954 4.383-4.25 4.264 7.825-1.324 13.773-6.434 13.773-6.434z" fill="#FF6231"/><path d="M134.774 344.792c-.062.006-.127-.019-.189-.012a1.395 1.395 0 01-1.192-1.572c5.48-41.047-28.558-66.824-28.913-67.086a1.37 1.37 0 01-.29-1.944c.471-.611 1.35-.746 1.944-.289.355.262 35.714 27.034 29.991 69.703-.072.68-.662 1.194-1.351 1.2z" fill="#4043AF"/><path d="M110.297 278.876s5.963-17.59-9.96-27.618c-.558-.352 5.011 9.522 5.011 9.522s-5.834-8.459-8.867-10.649c-3.033-2.191-5.169-3.013-8.806-3.841-.722-.165 4.473 6.011 3.708 5.867 0 0-3.888-4.547-7.209-6.557-3.32-2.009-9.769-1.173-15.859-1.135 0 0 8.54 4.824 13.721 20.216 6.598 19.509 28.261 14.195 28.261 14.195z" fill="#BD93D8"/><path d="M134.775 344.792c-.406.01-.817-.184-1.103-.531-12.081-15.169-29.551-18.694-29.726-18.724-.766-.142-1.247-.877-1.105-1.643a1.386 1.386 0 011.643-1.104c.766.142 18.647 3.72 31.377 19.732a1.404 1.404 0 01-.209 1.963c-.277.2-.581.293-.877.307z" fill="#4043AF"/><path d="M107.854 325.363s-6.334 6.683-16.685 8.369c-.602.098 3.697-3.558 3.697-3.558s-6.822 3.493-18.433 2.789c-11.61-.704-17.884-5.449-36.118-35.325 0 0 6.563 1.939 14.602 4.338 8.038 2.4 14.865 8.263 14.865 8.263s-7.868-9.113-7.146-9.039c5.357.554 8.223 1.926 15.047.76 27.292-4.664 30.171 23.403 30.171 23.403z" fill="#4043AF"/><path d="M21.75 330.827s5.31.832 13.628 2.607c.523.111.801 17.434.801 17.434s1.86-16.857 2.405-16.735c2.482.552 5.17 1.177 8.017 1.876.423.104-1.604 20.471-1.604 20.471s3.631-19.967 4.008-19.872c3.066.776 6.291 1.633 9.62 2.576.532.151-4.81 24.51-4.81 24.51s7.48-23.742 8.017-23.584a296.63 296.63 0 0112.024 3.809c.187.064-1.905 6.962-4 13.869l-4.016 13.923s9.993-27.109 10.421-26.958a227.19 227.19 0 0112.826 4.935c.297.126-11.223 31.642-11.223 31.642s13.124-30.829 13.628-30.608c5.125 2.243 10.096 4.694 14.734 7.361.436.25-17.94 33.668-17.94 33.668s20.313-32.269 20.842-31.943c5.842 3.591 11.052 7.553 15.231 11.903.503.524-26.454 30.462-26.454 30.462s29.1-27.512 29.66-26.816c4.62 5.731 8.233 12.425 11.046 19.601.248.634-32.385 23.247-32.385 23.247s33.616-19.941 33.858-19.239c2.271 6.595 3.926 13.507 5.117 20.385.119.687-28.057 16.49-28.057 16.49s28.569-13.36 28.649-12.826c.912 6.064 1.482 12.053 1.813 17.725.046.778-18.437 11.134-18.437 11.134s18.634-7.207 18.663-6.413c.702 18.687-1.027 32.867-1.027 32.867s-14.52-2.073-32.867-7.805c-1.057-.33 1.08-23.906 0-24.261-1.06-.348-5.336 22.526-6.413 22.154-5.222-1.803-10.64-3.894-16.033-6.304-1.07-.479 7.48-32.982 6.413-33.486-.803-.379-11.225 31.246-12.025 30.852-6.118-3.016-12.106-6.465-17.635-10.397-.812-.577 17.625-33.484 16.834-34.082-.804-.609-20.837 31.092-21.617 30.462-4.498-3.631-8.584-7.629-12.052-12.025-.418-.531 22.853-29.912 22.446-30.462-.766-1.032-25.196 26.745-25.922 25.652-3.08-4.636-5.804-9.787-8.213-15.231-.387-.874 24.886-21.557 24.516-22.445-.52-1.245-26.676 17.3-27.164 16.032-1.914-4.966-3.595-10.093-5.07-15.231-.23-.801 22.033-12.826 21.812-13.627-.294-1.07-23.067 9.083-23.344 8.016a263.777 263.777 0 01-3.298-14.429c-.27-1.352 14.061-8.301 13.816-9.62-.15-.809-14.885 4.001-15.026 3.206a328.479 328.479 0 01-2.38-15.609c-.124-.971 8.529 2.094 8.42 1.18-.122-1.019-9.005-6.008-9.108-6.949-.888-8.035-1.145-13.092-1.145-13.092z" fill="#CEA6DC"/><path d="M70.65 497.959s1.137-1.772 3.09-4.473c.123-.17 6.462 2.491 6.462 2.491s-5.833-3.354-5.704-3.53c.591-.802 1.241-1.666 1.943-2.576.104-.135 7.187 3.837 7.187 3.837s-6.685-4.484-6.59-4.604c.763-.976 1.582-1.996 2.448-3.04.138-.167 8.15 5.631 8.15 5.631s-7.451-6.466-7.31-6.634a114.61 114.61 0 013.276-3.705c.053-.057 2.23 1.792 4.41 3.644l4.429 3.659s-8.28-7.904-8.158-8.033a88.03 88.03 0 013.811-3.814c.093-.087 9.734 9.067 9.734 9.067s-9.14-9.62-8.98-9.765a59.138 59.138 0 014.993-4.112c.16-.116 9.413 11.8 9.413 11.8s-8.532-12.428-8.33-12.566c2.224-1.523 4.483-2.76 6.721-3.566.269-.097 6.909 14.342 6.909 14.342s-5.421-14.821-5.08-14.911c2.809-.744 5.81-.973 8.86-.838.27.011 3.354 15.32 3.354 15.32s-1.959-15.235-1.666-15.21c2.754.236 5.526.744 8.213 1.413.269.067 1.579 12.691 1.579 12.691s-.361-12.376-.154-12.32c2.347.64 4.613 1.39 6.726 2.174.29.108 1.146 8.388 1.146 8.388s.312-7.832.605-7.716c6.901 2.726 11.782 5.606 11.782 5.606s-3.037 4.877-8.006 10.545c-.286.326-8.517-4.197-8.816-3.866-.293.324 7.347 5.503 7.042 5.83a76.256 76.256 0 01-4.813 4.746c-.342.308-10.808-7.938-11.159-7.636-.265.228 9.589 9.005 9.32 9.229-2.059 1.714-4.254 3.312-6.552 4.669-.338.199-9.396-11.658-9.738-11.469-.347.191 8.022 12.428 7.67 12.608-2.027 1.034-4.123 1.863-6.265 2.406-.259.066-7.276-12.964-7.54-12.905-.495.11 5.756 13.299 5.245 13.385-2.169.366-4.469.523-6.827.519-.378 0-3.92-12.361-4.3-12.37-.534-.012 2.091 12.325 1.553 12.298a73.434 73.434 0 01-6.332-.608c-.327-.046-1.195-9.947-1.521-9.996-.435-.065-.327 9.722-.759 9.651a106.122 106.122 0 01-5.762-1.117c-.534-.118-.805-6.366-1.323-6.488-.317-.075-.887 5.976-1.198 5.9a131.914 131.914 0 01-6.046-1.633c-.373-.11 2.102-2.726 1.753-2.832-.39-.119-3.6 2.272-3.958 2.159-3.06-.962-4.938-1.675-4.938-1.675z" fill="#4043AF"/><path opacity=".3" d="M46.6 362.091s44.892 29.66 76.957 89.783" stroke="#fff" stroke-width=".5"/></svg>