<svg width="50" height="50" fill="none" xmlns="http://www.w3.org/2000/svg"><path d="M38.281 7.52c-6.461 0-11.718 5.257-11.718 11.718a11.65 11.65 0 003.356 8.21 11.65 11.65 0 008.124 3.506l.09.002a1.95 1.95 0 002.003-1.901 1.953 1.953 0 00-1.902-2.004l-.108-.002c-4.222-.082-7.657-3.586-7.657-7.81 0-4.309 3.504-7.813 7.812-7.813s7.813 3.505 7.813 7.812c0 5.38-1.28 10.346-3.804 14.758-1.886 3.297-3.805 5.039-3.84 5.07a1.953 1.953 0 002.588 2.926c.095-.084 2.339-2.085 4.548-5.892C47.6 32.63 50 26.886 50 19.238 50 12.777 44.743 7.52 38.281 7.52z" fill="url(#paint0_linear)" fill-opacity=".992"/><path d="M11.719 7.52C5.257 7.52 0 12.777 0 19.238a11.65 11.65 0 003.357 8.21 11.65 11.65 0 008.124 3.506l.09.002a1.953 1.953 0 10.102-3.905l-.11-.002c-4.222-.082-7.657-3.586-7.657-7.81 0-4.309 3.505-7.813 7.813-7.813s7.812 3.505 7.812 7.812c0 5.38-1.28 10.346-3.804 14.758-1.886 3.297-3.804 5.039-3.84 5.07a1.953 1.953 0 002.589 2.926c.094-.084 2.338-2.085 4.547-5.892 2.014-3.47 4.415-9.214 4.415-16.862 0-6.461-5.258-11.718-11.72-11.718z" fill="url(#paint1_linear)" fill-opacity=".992"/><defs><linearGradient id="paint0_linear" x1="50" y1="25" x2="26.563" y2="25" gradientUnits="userSpaceOnUse"><stop stop-color="#FFA979"/><stop offset="1" stop-color="#FF6231"/></linearGradient><linearGradient id="paint1_linear" x1="23.438" y1="25" x2="0" y2="25" gradientUnits="userSpaceOnUse"><stop stop-color="#FFA979"/><stop offset="1" stop-color="#FF6231"/></linearGradient></defs></svg>