<svg width="14" height="14" fill="none" xmlns="http://www.w3.org/2000/svg"><path d="M11.129 8.258a2.87 2.87 0 00-2.357 1.234L5.596 7.904a2.86 2.86 0 000-1.808l3.176-1.588A2.87 2.87 0 0014 2.871 2.874 2.874 0 0011.129 0a2.874 2.874 0 00-2.725 3.775L5.228 5.363A2.87 2.87 0 000 7a2.87 2.87 0 005.228 1.637l3.176 1.588A2.874 2.874 0 0011.129 14 2.874 2.874 0 0014 11.129a2.874 2.874 0 00-2.871-2.871zm0-7.438c1.13 0 2.05.92 2.05 2.051 0 1.13-.92 2.05-2.05 2.05s-2.05-.92-2.05-2.05.92-2.05 2.05-2.05zM2.87 9.05C1.741 9.05.821 8.13.821 7s.92-2.05 2.05-2.05 2.05.92 2.05 2.05-.92 2.05-2.05 2.05zm8.258 4.13c-1.13 0-2.05-.92-2.05-2.051 0-1.13.92-2.05 2.05-2.05s2.05.92 2.05 2.05-.92 2.05-2.05 2.05z" fill="#ff6231"/></svg>