<svg width="373" height="425" fill="none" xmlns="http://www.w3.org/2000/svg"><g clip-path="url(#clip0)"><path d="M130.456 49.658l-8.838 10.095-55.07-16.04 63.908 5.945z" fill="#FFD844"/><path d="M119.229 80.823l2.421-21.07-55.069-16.04 46.924 24.845 5.724 12.265z" fill="#F6AF00"/><path d="M98.629 83.623l14.876-15.065-46.924-24.844L98.63 83.623z" fill="#FFD844"/><path d="M345.373 314.532s-3.492-5.041 1.81-9.703c-.007.018 3.545 4.187-1.81 9.703zm5.927-4.142s.158-4.579 5.006-3.747c-.011.006-.16 4.773-5.006 3.747zm-13.986 11.801s-4.449-5.782 1.082-11.966c-.024.012 4.116 4.699-1.082 11.966zm-7.788 9.028s-7.524-6.392-.693-16.058c0 0 6.698 5.252.693 16.058zm-8.114 12.488s-8.11-6.859-.693-16.058c-.007.018 5.882 5.806.693 16.058zm19.576-25.464s3.704 4.412 9.856-.032c0 0-4.572-4.09-9.856.032zm-8.001 8.582s5.772 5.603 11.917-.039c0 0-5.524-5.626-11.917.039zm-7.196 9.631s5.782 6.808 14.384-.041c0 0-6.763-6.579-14.384.041zm-7.411 13.414s7.714 5.501 13.937-3.526c0 0-6.753-5.044-13.937 3.526z" fill="#CEA6DC"/><path d="M314.778 359.286l-1.171-.425c.131-.36 13.69-36.084 41.229-51.703l.596 1.053c-27.133 15.399-40.506 50.721-40.654 51.075z" fill="#CEA6DC"/><path d="M326.101 335.639a1.426 1.426 0 11.971-2.682 1.426 1.426 0 01-.971 2.682zm-3.722 9.058a1.426 1.426 0 11.973-2.681 1.426 1.426 0 01-.973 2.681zm9.588-13.867a1.223 1.223 0 11.834-2.299 1.223 1.223 0 01-.834 2.299zm9.727-14.251a1.02 1.02 0 11.696-1.917 1.02 1.02 0 01-.696 1.917z" fill="#FF6231"/><path d="M12.75 336s2.403.376 6.169 1.18c.236.05.362 7.891.362 7.891s.843-7.63 1.089-7.575c1.123.25 2.34.533 3.628.849.192.048-.725 9.266-.725 9.266s1.643-9.037 1.814-8.994c1.388.351 2.848.739 4.354 1.166.241.068-2.177 11.094-2.177 11.094s3.386-10.747 3.629-10.675a134.44 134.44 0 015.443 1.724c.084.029-.863 3.151-1.811 6.278l-1.818 6.302s4.523-12.271 4.717-12.203c1.943.684 3.893 1.428 5.806 2.234.134.057-5.08 14.323-5.08 14.323s5.94-13.955 6.168-13.855c2.32 1.016 4.57 2.125 6.67 3.332.197.114-8.121 15.24-8.121 15.24s9.195-14.606 9.434-14.459c2.645 1.626 5.003 3.419 6.895 5.388.227.237-11.975 13.788-11.975 13.788s13.172-12.453 13.426-12.138c2.091 2.594 3.726 5.624 5 8.872.112.287-14.66 10.523-14.66 10.523s15.217-9.026 15.327-8.708c1.027 2.985 1.777 6.114 2.316 9.227.054.311-12.7 7.464-12.7 7.464s12.931-6.047 12.968-5.806a89.15 89.15 0 01.82 8.023c.02.353-8.345 5.04-8.345 5.04s8.434-3.262 8.448-2.903c.317 8.459-.466 14.877-.466 14.877s-6.572-.938-14.877-3.532c-.478-.15.49-10.821 0-10.982-.48-.157-2.415 10.196-2.903 10.028a88.776 88.776 0 01-7.257-2.854c-.484-.216 3.386-14.929 2.903-15.157-.363-.171-5.08 14.144-5.443 13.965-2.77-1.365-5.48-2.926-7.982-4.706-.368-.261 7.978-15.156 7.62-15.427-.364-.275-9.432 14.074-9.785 13.788-2.036-1.643-3.886-3.453-5.455-5.443-.19-.24 10.344-13.539 10.16-13.788-.347-.467-11.405 12.106-11.734 11.611-1.394-2.098-2.627-4.43-3.718-6.894-.175-.396 11.265-9.758 11.097-10.16-.235-.563-12.074 7.831-12.295 7.257a82.792 82.792 0 01-2.295-6.894c-.104-.363 9.973-5.806 9.873-6.169-.133-.484-10.441 4.112-10.567 3.629a119.513 119.513 0 01-1.492-6.531c-.123-.612 6.365-3.757 6.254-4.355-.069-.366-6.738 1.811-6.802 1.452a149.016 149.016 0 01-1.077-7.066c-.056-.439 3.86.948 3.81.534-.054-.461-4.075-2.719-4.122-3.145-.402-3.637-.518-5.926-.518-5.926z" fill="#CEA6DC"/><path d="M34.884 411.651s.515-.802 1.4-2.024c.055-.077 2.924 1.127 2.924 1.127s-2.64-1.518-2.582-1.597c.268-.363.562-.755.88-1.166.047-.062 3.253 1.736 3.253 1.736s-3.026-2.029-2.983-2.084c.345-.442.716-.903 1.108-1.376.063-.075 3.69 2.549 3.69 2.549s-3.373-2.927-3.31-3.002c.47-.554.966-1.118 1.483-1.678.024-.026 1.01.812 1.997 1.65l2.004 1.656s-3.748-3.578-3.692-3.636a40.303 40.303 0 011.725-1.727c.041-.039 4.405 4.105 4.405 4.105s-4.136-4.355-4.064-4.421c.734-.67 1.49-1.3 2.26-1.861.072-.052 4.26 5.341 4.26 5.341s-3.861-5.625-3.77-5.687c1.007-.69 2.03-1.25 3.042-1.615.122-.044 3.127 6.492 3.127 6.492s-2.453-6.708-2.299-6.749c1.272-.337 2.63-.441 4.01-.38.123.006 1.519 6.935 1.519 6.935s-.887-6.896-.754-6.885c1.246.107 2.501.337 3.717.64.122.03.715 5.744.715 5.744s-.163-5.602-.07-5.576c1.063.289 2.088.629 3.045.984.13.049.518 3.797.518 3.797s.142-3.546.274-3.493c3.124 1.234 5.333 2.537 5.333 2.537s-1.374 2.208-3.623 4.773c-.13.148-3.856-1.899-3.99-1.749-.133.146 3.324 2.491 3.187 2.639a34.88 34.88 0 01-2.179 2.148c-.155.139-4.892-3.593-5.051-3.457-.12.104 4.34 4.077 4.218 4.178a22.703 22.703 0 01-2.965 2.113c-.153.091-4.253-5.276-4.408-5.191-.157.087 3.63 5.625 3.472 5.707a13.66 13.66 0 01-2.836 1.089c-.117.03-3.294-5.868-3.413-5.841-.224.049 2.605 6.019 2.374 6.058a18.43 18.43 0 01-3.09.235c-.171 0-1.774-5.595-1.947-5.599-.241-.005.947 5.579.704 5.567a33.354 33.354 0 01-2.867-.276c-.148-.02-.54-4.502-.688-4.524-.197-.03-.148 4.4-.344 4.368a48.483 48.483 0 01-2.608-.505c-.241-.054-.364-2.882-.598-2.937-.144-.034-.402 2.705-.543 2.671a60.53 60.53 0 01-2.737-.74c-.168-.05.952-1.234.794-1.282-.177-.053-1.63 1.029-1.792.978a44.968 44.968 0 01-2.235-.759z" fill="#4043AF"/><path opacity=".3" d="M23.998 350.151s20.32 13.426 34.835 40.64" stroke="#fff" stroke-width=".5"/><path d="M316.116 398.83c0 3.101-1.069 5.685-3.174 7.721-2.136 1.55-4.242 2.584-7.446 2.584l-234.395.425c-2.67 0-5.341-1.033-7.478-2.553-2.137-2.067-3.205-4.62-3.205-7.721l-.283-156.019h255.698l.283 155.563z" fill="url(#paint0_linear)"/><path d="M312.93 406.508c-2.139 1.604-4.246 2.673-7.454 2.673l-234.619.441c-2.673 0-5.346-1.07-7.485-2.642l124.575-107.398L312.93 406.508z" fill="url(#paint1_linear)"/><path d="M315.824 242.282l-36.231 26.197-84.664 60.948c-4.246 3.208-10.127 3.208-14.404.031l-84.35-60.633-36.294-26.071 36.2-26.197 78.814-56.671 5.85-4.277c4.245-3.208 10.127-3.208 14.404-.031l5.881 4.245 37.898 27.109 18.681 13.303 21.89 15.945 36.325 26.102z" fill="url(#paint2_linear)"/><g filter="url(#filter0_d)"><path d="M279.481 192.782l.126 75.697-84.665 60.948c-4.245 3.208-10.126 3.208-14.404.031l-84.35-60.633L96 170.736c0-5.849 4.78-10.661 10.63-10.693l160.913-.233c6.652-.01 12.043 5.393 12.018 12.045l-.08 20.927z" fill="#FAF9F9"/></g><path d="M145.86 243.156c-2.24 0-3.948-.616-5.124-1.848-1.157-1.251-1.736-3.005-1.736-5.264V231h3.052v5.016c0 1.157.187 2.053.56 2.688.373.635.849 1.083 1.428 1.344a4.378 4.378 0 001.82.392c.709 0 1.353-.121 1.932-.364.579-.261 1.036-.709 1.372-1.344.355-.635.532-1.54.532-2.716V231h3.024v5.044c0 2.296-.579 4.06-1.736 5.292-1.139 1.213-2.847 1.82-5.124 1.82zm14.16-.392h-2.856V227h6.328c1.755 0 3.118.439 4.088 1.316.971.877 1.456 2.203 1.456 3.976 0 1.549-.504 2.763-1.512 3.64-.989.877-2.333 1.316-4.032 1.316h-3.472v5.516zm3.08-13.44h-3.08v5.824h3.08c1.008 0 1.82-.243 2.436-.728.616-.485.924-1.213.924-2.184 0-.989-.308-1.717-.924-2.184-.597-.485-1.409-.728-2.436-.728z" fill="#4043AF"/><path d="M172.678 242.764V227h2.856v13.328h7.784v2.436h-10.64zm13.32 0l5.04-15.764h4.676l5.18 15.764h-3.052l-1.344-4.452h-6.132l-1.344 4.452h-3.024zm7.42-14.56l-2.38 7.896h4.788l-2.408-7.896zM215.129 227h2.968v15.764h-5.432l-5.404-14.504h-.056v14.504h-2.94V227h5.04l5.768 14.504h.056V227zm21.937 7.868c0 2.072-.411 3.687-1.232 4.844-.803 1.139-1.941 1.932-3.416 2.38-1.475.448-3.211.672-5.208.672h-4.34V227h4.34c1.997 0 3.733.299 5.208.896 1.475.579 2.613 1.447 3.416 2.604.821 1.157 1.232 2.613 1.232 4.368zm-11.368 5.544h2.324c1.232 0 2.296-.14 3.192-.42a3.721 3.721 0 002.072-1.652c.485-.803.728-1.969.728-3.5 0-1.811-.541-3.155-1.624-4.032-1.064-.896-2.52-1.344-4.368-1.344h-2.324v10.948z" opacity=".6" fill="#4043AF"/><circle cx="140.5" cy="228.5" r="1.5" fill="#FF6231"/><circle cx="151.2" cy="228.5" r="1.5" fill="#FF6231"/><path d="M187.956 349.927c10.469 0 18.955-8.49 18.955-18.963 0-10.474-8.486-18.964-18.955-18.964-10.469 0-18.956 8.49-18.956 18.964 0 10.473 8.487 18.963 18.956 18.963z" fill="url(#paint3_linear)"/><path d="M197.646 330.964l-15.334-8.843v17.685l15.334-8.842z" fill="#fff"/><path opacity=".31" d="M13.158 190.789a2.59 2.59 0 01-2.58 2.578A2.59 2.59 0 018 190.789a2.59 2.59 0 012.579-2.579 2.59 2.59 0 012.579 2.579z" fill="#fff"/><path opacity=".31" d="M8 182.58c5.944 0 10.787 4.843 10.787 10.787h3.523c0-7.893-6.416-14.309-14.31-14.309v3.522z" fill="#C5D5FF"/><path opacity=".31" d="M8 173.397c11.008 0 19.97 8.963 19.97 19.97h4.027c0-13.24-10.756-23.995-23.997-23.995v4.025z" fill="#C5D5FF"/><path opacity=".31" d="M8 164.34c16.008 0 29.029 13.02 29.029 29.027h4.34C41.369 174.97 26.399 160 8 160v4.34zm305.158-35.206a1.5 1.5 0 001.5-1.5v-4.611a1.5 1.5 0 00-1.5-1.5h-1.959a13.896 13.896 0 00-1.384-3.302l1.392-1.392a1.5 1.5 0 000-2.122l-3.256-3.256a1.5 1.5 0 00-2.122 0l-1.392 1.392a13.913 13.913 0 00-3.302-1.384V109.5a1.5 1.5 0 00-1.5-1.5h-4.611a1.5 1.5 0 00-1.5 1.5v1.959a13.903 13.903 0 00-3.303 1.384l-1.392-1.392a1.5 1.5 0 00-2.121 0l-3.257 3.256a1.5 1.5 0 000 2.122l1.392 1.392a13.852 13.852 0 00-1.383 3.302h-1.96a1.5 1.5 0 00-1.5 1.5v4.611a1.5 1.5 0 001.5 1.5h1.96a13.869 13.869 0 001.383 3.302l-1.392 1.392a1.5 1.5 0 000 2.121l3.257 3.257a1.5 1.5 0 002.121 0l1.392-1.392a13.859 13.859 0 003.303 1.383v1.96a1.5 1.5 0 001.5 1.5h4.611a1.5 1.5 0 001.5-1.5v-1.96a13.869 13.869 0 003.302-1.383l1.392 1.392a1.5 1.5 0 002.122 0l3.256-3.257a1.5 1.5 0 000-2.121l-1.392-1.392a13.913 13.913 0 001.384-3.302h1.959zm-15.86 2.956c-3.743 0-6.794-3.051-6.794-6.793 0-3.743 3.051-6.793 6.794-6.793 3.742 0 6.793 3.05 6.793 6.793-.032 3.774-3.051 6.793-6.793 6.793zM23.345 104a1.5 1.5 0 001.5-1.5v-1.093c.864-.252 1.692-.576 2.485-1.044l.776.776a1.5 1.5 0 002.12 0l1.913-1.912a1.5 1.5 0 000-2.121l-.776-.776c.432-.757.792-1.62 1.044-2.485H33.5a1.5 1.5 0 001.5-1.5v-2.69a1.5 1.5 0 00-1.5-1.5h-1.093c-.252-.864-.576-1.692-1.044-2.485l.776-.776a1.5 1.5 0 000-2.12l-1.912-1.913a1.5 1.5 0 00-2.122 0l-.775.776a11.69 11.69 0 00-2.485-1.044V79.5a1.5 1.5 0 00-1.5-1.5h-2.69a1.5 1.5 0 00-1.5 1.5v1.093c-.864.252-1.692.576-2.485 1.044l-.776-.776a1.5 1.5 0 00-2.12 0l-1.913 1.912a1.5 1.5 0 000 2.121l.776.776c-.432.757-.792 1.62-1.044 2.485H10.5a1.5 1.5 0 00-1.5 1.5v2.69a1.5 1.5 0 001.5 1.5h1.093c.252.864.576 1.692 1.044 2.485l-.776.776a1.5 1.5 0 000 2.12l1.912 1.913a1.5 1.5 0 002.122 0l.775-.776c.757.432 1.62.792 2.485 1.044v1.093a1.5 1.5 0 001.5 1.5h2.69zm-6.423-13A5.072 5.072 0 0122 85.922 5.072 5.072 0 0127.078 91 5.072 5.072 0 0122 96.078 5.072 5.072 0 0116.922 91zM300 59.931l3.837 11.982h21.669l-3.837-11.982H300z" fill="#C5D5FF"/><path opacity=".31" d="M321.669 59.208h.503l.158.503 3.176 9.844V57.572h-17.109L307.454 56h-3.617v3.208h17.832zM148 48.781l22.864 11.605L190.647 29 148 48.781z" fill="#C5D5FF"/><path opacity=".1" d="M190.647 29l-33.841 24.247v12.8l5.818-9.844L190.647 29z" fill="#04659B"/><path opacity=".1" d="M190.647 29l-33.841 24.247v12.8l5.818-9.844L190.647 29z" fill="#C5D5FF"/><path opacity=".3" d="M83 230.5s-41.5-41-18.5-75.5S222 147.516 222 107.5c0-13.073-4.696-22.852-22.5-22.5-20.328.402-13.5 37 12 47 14.962 5.868 56.5-2.5 49-39.5s-66-30-89-7.5-21.691 48.142-39 36.5c-10.913-7.34-10.5-32-10.5-32" stroke="#5437B2" stroke-width="2" stroke-linecap="round" stroke-dasharray="1 8"/><path d="M112.226 348.157s.75-5.904 6.921-4.25c-.014.006-.776 6.155-6.921 4.25zm-19.498 13.597s-5.066-8.009 2.827-15.348c-.033.012 4.763 6.568-2.827 15.348z" fill="#4043AF"/><path d="M81.579 372.503s-8.97-9.165 1.018-20.852c0 0 8.037 7.591-1.018 20.852z" fill="#FF6231"/><path d="M69.594 387.688s-9.673-9.838 1.018-20.853c-.01.023 6.916 8.212-1.018 20.853zm16.985-20.456s6.798 7.936 15.419 1.371c0 0-6.474-7.936-15.42-1.371zm-10.456 11.6s6.667 9.495 18.61 1.663c0 0-7.964-9.317-18.61-1.663z" fill="#4043AF"/><path d="M64.936 395.299s9.323 8.035 18.449-2.9c0 0-8.134-7.329-18.449 2.9z" fill="#FF6231"/><path d="M59.155 407.049l-1.464-.689c.213-.451 22.01-45.043 59.494-61.961l.646 1.433c-36.933 16.682-58.441 60.777-58.676 61.217z" fill="#4043AF"/><path d="M76.62 377.812a1.853 1.853 0 111.579-3.353 1.853 1.853 0 01-1.579 3.353zm-5.894 11.273a1.854 1.854 0 111.58-3.354 1.854 1.854 0 01-1.58 3.354zm14.056-16.794a1.589 1.589 0 111.354-2.875 1.589 1.589 0 01-1.354 2.875zm14.28-17.274a1.323 1.323 0 111.127-2.394 1.323 1.323 0 01-1.127 2.394zm5.925-.315a1.325 1.325 0 111.13-2.396 1.325 1.325 0 01-1.13 2.396zm4.153-5.667a1.324 1.324 0 111.129-2.395 1.324 1.324 0 01-1.129 2.395zm-3.376 1.665a1.323 1.323 0 111.126-2.395 1.323 1.323 0 01-1.126 2.395zm-3.377 1.665a1.323 1.323 0 111.125-2.395 1.323 1.323 0 01-1.125 2.395zm-.257 4.469a1.324 1.324 0 111.128-2.396 1.324 1.324 0 01-1.128 2.396zm5.713-4.264a1.325 1.325 0 111.128-2.395 1.325 1.325 0 01-1.128 2.395zm3.844-2.185a1.324 1.324 0 111.129-2.395 1.324 1.324 0 01-1.129 2.395z" fill="#FF6231"/><path style="mix-blend-mode:multiply" opacity=".59" d="M260.237 426.073c-17.65-10.106-17.65-26.661 0-36.768 17.649-10.106 46.455-10.106 64.008 0 17.553 10.107 17.553 26.662 0 36.768-17.553 10.107-46.359 10.139-64.008 0z" fill="url(#paint4_radial)"/><path d="M321.256 401.112a38.513 38.513 0 0012.565-13.906 38.44 38.44 0 004.506-18.177v-11.326a8.976 8.976 0 00-4.5-7.745 9.017 9.017 0 00-8.97-.019l-8.038 4.62 4.212 7.251 8.037-4.62a.452.452 0 01.579 0 .546.546 0 01.289.513v11.326a30.045 30.045 0 01-3.533 14.178 30.116 30.116 0 01-9.809 10.847l4.662 7.058z" fill="#1C1C7D"/><path d="M262.97 348.495h58.479v56.051c0 13.128-19.253 16.459-28.834 16.459-9.692.08-29.802-4.106-29.613-16.941l-.032-55.569z" fill="url(#paint5_linear)"/><path d="M271.636 360.324c-11.515-6.113-11.515-16.413 0-22.648 6.48-3.075 13.633-4.676 20.888-4.676 7.255 0 14.409 1.601 20.889 4.676 11.449 6.113 11.449 16.413 0 22.648-6.48 3.075-13.634 4.676-20.889 4.676-7.255 0-14.408-1.601-20.888-4.676z" fill="#99A7D8"/><path d="M273.066 359.598c-10.755-5.823-10.755-15.373 0-21.196 6.031-2.894 12.697-4.402 19.459-4.402 6.761 0 13.428 1.508 19.458 4.402 10.689 5.823 10.689 15.373 0 21.196-6.03 2.894-12.697 4.402-19.458 4.402-6.762 0-13.428-1.508-19.459-4.402z" fill="url(#paint6_linear)"/><path d="M275.404 360.774c-9.872-4.271-9.872-11.277 0-15.548 11.33-4.301 24.01-4.301 35.34 0 9.675 4.271 9.675 11.277 0 15.548-11.33 4.301-24.01 4.301-35.34 0z" fill="#735E5E"/><path d="M268 354.645c1.678-2.193 4.128-3.721 6.892-4.298a67.355 67.355 0 0135.249 0c2.752.584 5.19 2.112 6.859 4.298-1.399 2.784-3.854 4.945-6.859 6.037a48.468 48.468 0 01-35.249 0c-3.019-1.082-5.488-3.245-6.892-6.037z" fill="#5E4545"/></g><defs><linearGradient id="paint0_linear" x1="316.116" y1="326.414" x2="60.135" y2="326.414" gradientUnits="userSpaceOnUse"><stop stop-color="#FFA979"/><stop offset="1" stop-color="#FFC09E"/></linearGradient><linearGradient id="paint1_linear" x1="312.93" y1="354.602" x2="63.372" y2="354.602" gradientUnits="userSpaceOnUse"><stop stop-color="#F99373"/><stop offset="1" stop-color="#FFA979"/></linearGradient><linearGradient id="paint2_linear" x1="315.824" y1="242.518" x2="59.881" y2="242.518" gradientUnits="userSpaceOnUse"><stop stop-color="#F99373"/><stop offset="1" stop-color="#FFA979"/></linearGradient><linearGradient id="paint3_linear" x1="178.287" y1="298.983" x2="206.482" y2="392.292" gradientUnits="userSpaceOnUse"><stop stop-color="#FF6570"/><stop offset="1" stop-color="#EC374F"/></linearGradient><linearGradient id="paint5_linear" x1="321.449" y1="348.495" x2="249.379" y2="366.441" gradientUnits="userSpaceOnUse"><stop stop-color="#2A2895"/><stop offset="1" stop-color="#793BC8"/></linearGradient><linearGradient id="paint6_linear" x1="-14577.9" y1="7495.9" x2="-15492" y2="7495.9" gradientUnits="userSpaceOnUse"><stop offset=".02" stop-color="#5C629E"/><stop offset=".37" stop-color="#565B8F"/><stop offset="1" stop-color="#48486A"/></linearGradient><radialGradient id="paint4_radial" cx="0" cy="0" r="1" gradientUnits="userSpaceOnUse" gradientTransform="matrix(-45.1689 0 0 -24.7929 292.192 520.894)"><stop offset=".53" stop-color="#48486A"/><stop offset=".59" stop-color="#6F6F8A"/><stop offset=".65" stop-color="#9B9BAD"/><stop offset=".72" stop-color="#BFBFCB"/><stop offset=".79" stop-color="#DBDBE2"/><stop offset=".86" stop-color="#EFEFF2"/><stop offset=".93" stop-color="#FBFBFC"/><stop offset="1" stop-color="#fff"/></radialGradient><clipPath id="clip0"><path fill="#fff" d="M0 0h373v425H0z"/></clipPath><filter id="filter0_d" x="81" y="144.81" width="203.607" height="192.027" filterUnits="userSpaceOnUse" color-interpolation-filters="sRGB"><feFlood flood-opacity="0" result="BackgroundImageFix"/><feColorMatrix in="SourceAlpha" values="0 0 0 0 0 0 0 0 0 0 0 0 0 0 0 0 0 0 127 0"/><feOffset dx="-5" dy="-5"/><feGaussianBlur stdDeviation="5"/><feColorMatrix values="0 0 0 0 0.141176 0 0 0 0 0.113725 0 0 0 0 0.619608 0 0 0 0.1 0"/><feBlend in2="BackgroundImageFix" result="effect1_dropShadow"/><feBlend in="SourceGraphic" in2="effect1_dropShadow" result="shape"/></filter></defs></svg>