<svg width="837" height="368" fill="none" xmlns="http://www.w3.org/2000/svg"><path d="M19.476 362.812c10.757 2.629 21.61-3.963 24.24-14.723 2.632-10.76-3.954-21.613-14.71-24.242-10.757-2.629-21.61 3.963-24.241 14.723-2.632 10.76 3.955 21.614 14.711 24.242z" fill="url(#paint0_linear)"/><g clip-path="url(#clip0)"><path d="M20.597 350.935c1.703 0 3.219-.344 4.537-.935.263-.118.892.431.892.431s.407-1.126.66-1.298c3.102-2.11 4.745-5.736 4.745-9.032 0-.165-.004-.329-.01-.492a7.765 7.765 0 001.898-1.972c-.682.303-1.904.494-2.674.587.786-.472 1.878-1.205 2.162-2.094a7.615 7.615 0 01-2.418.925c-.694-.74-2.278-1.141-3.373-1.141-2.103 0-3.214 1.643-3.214 3.745 0 .299.033.589.099.868a10.81 10.81 0 01-7.849-3.978c-1.291 3.552 1.426 4.334 3.375 5.634-.625-.019-3.408-.742-3.92-1.027l-.001.049c0 1.844 3.261 4.156 5.24 3.617-.32.087-2.842.249-3.19.249-.244 0-1.856.126-2.088.081.485 1.513 3.3 2.97 4.93 2.495a7.636 7.636 0 01-4.73 1.63c-.306 0-.61-.018-.907-.053a10.78 10.78 0 005.836 1.711z" fill="#fff"/></g><path d="M745.125 115.548c4.487 12.865 18.556 19.656 31.425 15.168 12.868-4.489 19.662-18.556 15.174-31.422-4.487-12.865-18.556-19.656-31.424-15.167-12.868 4.488-19.662 18.556-15.175 31.421z" fill="url(#paint1_linear)"/><g clip-path="url(#clip1)"><path d="M759.077 109.622l-2.272-1.96a2 2 0 01-.208-2.82l4.571-5.302a1.999 1.999 0 012.821-.208l2.272 1.959m6.607 3.057l2.612-3.03a2.995 2.995 0 00-.313-4.23l-8.906 4.203-7.184 8.331 8.543 7.366a1.999 1.999 0 002.625.019l6.922-5.915a1.995 1.995 0 00.699-1.527 2.012 2.012 0 00-.712-1.521l-4.286-3.696z" stroke="#fff" stroke-width="2" stroke-linecap="round" stroke-linejoin="round"/></g><path d="M817.607 300.404l-26.739 23.734 15.391 17.372 26.739-23.734-15.391-17.372z" fill="#A94C2F"/><path d="M817.593 300.407l-26.718 23.726 3.256-20.406a3.002 3.002 0 012.847-2.525l20.615-.795z" fill="#FF6231"/><path d="M811.371 301.631l-18.408 16.34a2.002 2.002 0 00-.17 2.824l13.352 15.071a1.999 1.999 0 002.822.169l18.409-16.34a2.002 2.002 0 00.169-2.825l-13.352-15.07a1.997 1.997 0 00-2.822-.169z" fill="#fff"/><g filter="url(#filter0_d)"><path d="M790.875 324.133l15.389 17.37 6.194-19.914-21.583 2.544z" fill="url(#paint2_linear)"/></g><g filter="url(#filter1_d)"><path d="M817.593 300.406l15.389 17.371-20.509 3.785 5.12-21.156z" fill="url(#paint3_linear)"/></g><path d="M832.982 317.777l-26.718 23.727 3.257-20.406a2.999 2.999 0 012.846-2.525l20.615-.796z" fill="#FF6231"/><path d="M258.393 305.397c7.638-7.638 7.637-20.024-.003-27.664-7.64-7.64-20.026-7.641-27.664-.003-7.639 7.638-7.637 20.024.003 27.664 7.64 7.64 20.025 7.642 27.664.003z" fill="url(#paint4_linear)"/><path d="M250.486 302.787l-13.239-3.549a6.171 6.171 0 01-4.367-7.564 6.168 6.168 0 017.562-4.366l1.309.351.416-1.552a6.17 6.17 0 017.563-4.366 6.173 6.173 0 014.367 7.564l-3.611 13.482z" fill="#fff"/><path d="M42.606 33.4l-2.863 11.952L81.36 10.31 42.606 33.4z" fill="#FFDF08"/><path d="M81.36 10.31L51.902 37.348l-2.1-.63L81.36 10.31z" fill="#FFA808"/><path d="M81.36 10.31l-39.255 20.1.499 2.99 38.757-23.09z" fill="#FFA808"/><path d="M81.36 10.31L35.09 24.27l7.015 6.14 39.256-20.1z" fill="#FFDF08"/><defs><linearGradient id="paint0_linear" x1="27.054" y1="328.682" x2="17.893" y2="376.272" gradientUnits="userSpaceOnUse"><stop stop-color="#AE8DEF"/><stop offset=".999" stop-color="#7546D9"/></linearGradient><linearGradient id="paint1_linear" x1="780.773" y1="62.108" x2="751.737" y2="168.629" gradientUnits="userSpaceOnUse"><stop offset=".001" stop-color="#24C2E4"/><stop offset=".996" stop-color="#045FF2"/></linearGradient><linearGradient id="paint2_linear" x1="806.904" y1="318.382" x2="796.732" y2="336" gradientUnits="userSpaceOnUse"><stop stop-color="#FFA979"/><stop offset="1" stop-color="#F99373"/></linearGradient><linearGradient id="paint3_linear" x1="827.124" y1="305.91" x2="816.684" y2="323.993" gradientUnits="userSpaceOnUse"><stop stop-color="#FFA979"/><stop offset="1" stop-color="#F99373"/></linearGradient><linearGradient id="paint4_linear" x1="230.708" y1="305.392" x2="258.369" y2="277.731" gradientUnits="userSpaceOnUse"><stop stop-color="#FC727C"/><stop offset="1" stop-color="#FA3A54"/></linearGradient><clipPath id="clip0"><path fill="#fff" transform="translate(14.148 333.604)" d="M0 0h19.796v19.796H0z"/></clipPath><clipPath id="clip1"><path fill="#fff" transform="rotate(40.772 265.146 1077.71)" d="M0 0h24v24H0z"/></clipPath><filter id="filter0_d" x="789.875" y="318.588" width="25.583" height="23.915" filterUnits="userSpaceOnUse" color-interpolation-filters="sRGB"><feFlood flood-opacity="0" result="BackgroundImageFix"/><feColorMatrix in="SourceAlpha" values="0 0 0 0 0 0 0 0 0 0 0 0 0 0 0 0 0 0 127 0"/><feOffset dx="1" dy="-1"/><feGaussianBlur stdDeviation="1"/><feColorMatrix values="0 0 0 0 0 0 0 0 0 0 0 0 0 0 0 0 0 0 0.4 0"/><feBlend in2="BackgroundImageFix" result="effect1_dropShadow"/><feBlend in="SourceGraphic" in2="effect1_dropShadow" result="shape"/></filter><filter id="filter1_d" x="810.473" y="297.406" width="24.509" height="25.156" filterUnits="userSpaceOnUse" color-interpolation-filters="sRGB"><feFlood flood-opacity="0" result="BackgroundImageFix"/><feColorMatrix in="SourceAlpha" values="0 0 0 0 0 0 0 0 0 0 0 0 0 0 0 0 0 0 127 0"/><feOffset dy="-1"/><feGaussianBlur stdDeviation="1"/><feColorMatrix values="0 0 0 0 0 0 0 0 0 0 0 0 0 0 0 0 0 0 0.4 0"/><feBlend in2="BackgroundImageFix" result="effect1_dropShadow"/><feBlend in="SourceGraphic" in2="effect1_dropShadow" result="shape"/></filter></defs></svg>